				<svg class="scroll-down" xmlns="http://www.w3.org/2000/svg" viewBox="0 0 100 125" xml:space="preserve"><path d="M49.2921143,88.2061768l0.0008545,0.0008545c0.0959473,0.0959473,0.2069702,0.1669922,0.3249512,0.2158203  C49.7357788,88.4716797,49.8644409,88.5,50,88.5s0.2642822-0.0283203,0.3820801-0.0770874  c0.117981-0.0488281,0.2290039-0.1199341,0.3249512-0.2158813l0.0008545-0.0008545l37.4991455-37.4991455  c0.390625-0.390625,0.390625-1.0234375,0-1.4140625s-1.0234375-0.390625-1.4140625,0L51,85.0859375V12.5  c0-0.5522461-0.4472656-1-1-1s-1,0.4477539-1,1v72.5859375L13.2070313,49.2929688  c-0.390625-0.390625-1.0234375-0.390625-1.4140625,0s-0.390625,1.0234375,0,1.4140625L49.2921143,88.2061768z"/></svg>